<svg t="1686281538755" class="icon" viewBox="0 0 1024 1024" version="1.1" xmlns="http://www.w3.org/2000/svg" p-id="1125" width="200" height="200"><path d="M896.448 736.068c-20.915-49.449-50.851-93.854-88.975-131.978s-82.528-68.06-131.978-88.975a415.403 415.403 0 0 0-30.445-11.49 227.094 227.094 0 0 0 25.44-21.939c42.31-42.306 65.61-98.557 65.61-158.39s-23.3-116.084-65.608-158.392c-42.308-42.308-98.56-65.608-158.392-65.608-59.833 0-116.084 23.3-158.392 65.608S288.1 263.464 288.1 323.296s23.3 116.084 65.608 158.392a226.956 226.956 0 0 0 26.557 22.747 415.447 415.447 0 0 0-28.043 10.682c-49.45 20.915-93.853 50.851-131.977 88.975s-68.06 82.528-88.975 131.978c-21.661 51.213-32.644 105.596-32.644 161.638 0 17.673 14.327 32 32 32h766.468c17.673 0 32-14.327 32-32-0.001-56.044-10.985-110.427-32.646-161.64zM352.1 323.296c0-88.224 71.776-160 160-160 88.225 0 160 71.776 160 160 0 83.443-64.211 152.16-145.815 159.364-4.133-0.12-8.274-0.188-12.426-0.188-5.028 0-10.041 0.092-15.041 0.269-82.034-6.775-146.718-75.694-146.718-159.445z m-188.03 542.41c15.736-173.518 158.212-310.982 333.848-318.866 4.702 0.292 9.429 0.456 14.182 0.456 5.192 0 10.355-0.187 15.487-0.535 176.65 6.825 320.26 144.701 336.061 318.945H164.07z" p-id="1126"></path></svg>